<?xml version="1.0" standalone="no"?>
<!DOCTYPE svg PUBLIC "-//W3C//DTD SVG 20010904//EN"
 "http://www.w3.org/TR/2001/REC-SVG-20010904/DTD/svg10.dtd">
<svg version="1.0" xmlns="http://www.w3.org/2000/svg"
 width="900.000000pt" height="900.000000pt" viewBox="0 0 900.000000 900.000000"
 preserveAspectRatio="xMidYMid meet">
<metadata>
Created by potrace 1.14, written by Peter Selinger 2001-2017
</metadata>
<g transform="translate(0.000000,900.000000) scale(0.100000,-0.100000)"
fill="#000000" stroke="none">
<path d="M4269 8466 c-2 -2 -49 -7 -104 -11 -122 -9 -148 -11 -205 -20 -25 -3
-61 -9 -80 -12 -35 -5 -213 -37 -261 -47 -102 -22 -347 -90 -429 -121 -348
-129 -589 -245 -850 -410 -105 -67 -333 -230 -370 -266 -9 -8 -40 -34 -70 -59
-123 -99 -357 -332 -455 -451 -11 -14 -41 -49 -66 -79 -95 -113 -339 -463
-339 -486 0 -3 -8 -18 -19 -32 -28 -40 -177 -332 -201 -394 -12 -29 -27 -67
-35 -84 -51 -111 -166 -458 -189 -574 -3 -14 -7 -34 -10 -45 -15 -59 -42 -195
-52 -255 -3 -19 -7 -46 -9 -60 -3 -14 -7 -50 -11 -80 -3 -30 -8 -64 -10 -75
-11 -56 -19 -254 -19 -455 0 -272 8 -378 47 -625 22 -143 21 -139 38 -210 6
-27 14 -61 17 -75 9 -49 55 -216 81 -295 14 -44 27 -82 27 -85 3 -9 15 -40 67
-175 315 -811 906 -1508 1668 -1967 369 -222 827 -403 1225 -482 44 -9 91 -19
105 -21 66 -14 303 -46 389 -53 124 -9 571 -9 681 0 110 10 313 37 368 49 23
5 59 12 80 15 121 18 403 98 592 167 444 161 868 411 1235 726 98 84 306 287
375 366 192 219 333 413 471 646 81 137 229 441 269 554 18 50 38 104 45 120
26 58 113 353 129 435 3 14 8 36 11 50 3 14 10 48 15 75 6 28 12 61 15 75 5
25 10 56 20 115 3 17 7 57 11 90 3 33 7 66 10 73 25 78 25 725 0 882 -2 14 -8
52 -11 85 -4 33 -9 70 -10 82 -3 20 -16 98 -20 113 -1 3 -5 25 -9 50 -5 25
-10 52 -11 60 -2 8 -8 33 -13 55 -6 22 -13 51 -16 65 -3 14 -10 43 -16 65 -6
22 -13 49 -15 60 -7 31 -75 243 -87 273 -6 15 -12 32 -14 37 -20 80 -191 448
-276 594 -28 47 -56 95 -62 106 -48 88 -267 393 -351 490 -116 134 -256 279
-360 375 -120 110 -144 130 -261 221 -530 410 -1173 689 -1824 789 -41 6 -85
13 -98 15 -13 2 -53 7 -90 11 -37 3 -78 8 -92 10 -32 6 -566 15 -571 10z"/>
</g>
</svg>
